<svg width="201" height="44" viewBox="0 0 201 44" fill="none" xmlns="http://www.w3.org/2000/svg">
<g clip-path="url(#clip0_67_26790)">
<mask id="mask0_67_26790" style="mask-type:luminance" maskUnits="userSpaceOnUse" x="0" y="0" width="201" height="44">
<path d="M201 0H0V44H201V0Z" fill="white"/>
</mask>
<g mask="url(#mask0_67_26790)">
<path fill-rule="evenodd" clip-rule="evenodd" d="M5.16275 22.368V19.728H3.21035C2.20854 19.728 1.61087 20.2111 1.61087 21.0509C1.61087 21.8906 2.23131 22.3737 3.18758 22.3737H5.16275V22.368ZM2.07762 23.317C1.0075 23.0179 0.256145 22.2357 0.256145 20.9588C0.256145 19.4577 1.33196 18.5029 3.1022 18.5029H6.48901V26.2101H5.15706V23.5471H3.47219L1.57672 26.2101H0L2.08331 23.317H2.07762Z" fill="#2B2735"/>
<path fill-rule="evenodd" clip-rule="evenodd" d="M26.6789 19.7626H24.2598V18.5088H30.4528V19.7626H28.0336V26.216H26.6789V19.7626Z" fill="#2B2735"/>
<path fill-rule="evenodd" clip-rule="evenodd" d="M38.2734 18.503H43.9314V19.7108H39.6168V21.7124H43.4419V22.926H39.6168V24.9966H43.9883V26.2044H38.2791V18.4973L38.2734 18.503Z" fill="#2B2735"/>
<path fill-rule="evenodd" clip-rule="evenodd" d="M55.1335 25.0022C56.289 25.0022 56.9208 24.7262 56.9208 23.7829C56.9208 23.0352 56.3629 22.6498 55.3725 22.6498H53.3689V25.008H55.1335V25.0022ZM52.0369 18.5029H57.7291V19.7222H53.3689V21.4937H55.4921C57.1712 21.4937 58.2584 22.3392 58.2584 23.8289C58.2584 25.3186 57.1712 26.2101 55.4238 26.2101H52.0312V18.5029H52.0369Z" fill="#2B2735"/>
<path fill-rule="evenodd" clip-rule="evenodd" d="M70.639 22.368V19.728H68.6866C67.6848 19.728 67.0814 20.2111 67.0814 21.0509C67.0814 21.8906 67.7018 22.3737 68.6638 22.3737H70.6333L70.639 22.368ZM67.5538 23.317C66.4837 23.0179 65.7324 22.2357 65.7324 20.9588C65.7324 19.4577 66.8139 18.5029 68.5784 18.5029H71.9652V26.2101H70.6333V23.5471H68.9427L67.0473 26.2101H65.4648L67.5482 23.317H67.5538Z" fill="#2B2735"/>
<path fill-rule="evenodd" clip-rule="evenodd" d="M129.177 22.3565C129.177 20.1651 130.799 18.3706 133.11 18.3706C134.516 18.3706 135.364 18.8653 136.098 19.5727L135.239 20.5735C134.63 20.0041 133.975 19.613 133.104 19.613C131.641 19.613 130.583 20.8266 130.583 22.3565C130.583 23.8864 131.641 25.1 133.104 25.1C134.044 25.1 134.641 24.7147 135.296 24.0993L136.161 24.9793C135.364 25.819 134.493 26.3424 133.064 26.3424C130.839 26.3424 129.182 24.5939 129.182 22.3565H129.177Z" fill="#2B2735"/>
<path fill-rule="evenodd" clip-rule="evenodd" d="M143.453 26.1815L143.59 25.0714C143.686 25.1059 143.863 25.1347 144.022 25.1347C144.796 25.1347 145.514 24.64 145.514 20.0272V18.5088H150.745V26.216H149.401V19.7281H146.766V20.4241C146.766 25.3245 145.883 26.3023 144.375 26.3023C144.079 26.3023 143.658 26.239 143.447 26.1815H143.453Z" fill="#2B2735"/>
<path fill-rule="evenodd" clip-rule="evenodd" d="M166.045 18.5029H167.377V26.2101H166.045V18.5029ZM162.242 25.0022C163.233 25.0022 163.813 24.5479 163.813 23.6794C163.813 22.8856 163.233 22.4543 162.22 22.4543H160.523V24.9965H162.242V25.0022ZM159.191 18.5029H160.523V21.2752H162.277C163.984 21.2752 165.145 22.1322 165.145 23.6909C165.145 25.2496 164.035 26.2101 162.265 26.2101H159.191V18.5029Z" fill="#2B2735"/>
<path fill-rule="evenodd" clip-rule="evenodd" d="M175.818 18.5029H177.15V25.0022H180.15V18.5029H181.493V25.0022H184.493V18.5029H185.825V26.2101H175.83V18.5029H175.818Z" fill="#2B2735"/>
<path fill-rule="evenodd" clip-rule="evenodd" d="M194.112 25.9455L194.625 24.9332C194.932 25.1115 195.222 25.1748 195.564 25.1748C195.905 25.1748 196.378 24.9677 196.765 24.3408L193.583 18.5029H195.086L197.465 22.9834L199.554 18.5029H201.006L198.029 24.5249C197.385 25.8362 196.6 26.3309 195.609 26.3309C195.023 26.3309 194.562 26.1871 194.118 25.9455H194.112Z" fill="#2B2735"/>
<path fill-rule="evenodd" clip-rule="evenodd" d="M108.35 17.7092L110.114 15.9319C106.357 12.5787 100.711 12.5787 96.9541 15.9319L98.7187 17.7092C101.496 15.3337 105.578 15.3337 108.35 17.7092Z" fill="#1DABDD"/>
<path fill-rule="evenodd" clip-rule="evenodd" d="M97.8363 18.6008L96.0774 16.8235C92.7646 20.6196 92.7646 26.3252 96.0774 30.1156L97.8363 28.3383C95.4854 25.5315 95.4854 21.4076 97.8363 18.6008Z" fill="#ABC82B"/>
<path fill-rule="evenodd" clip-rule="evenodd" d="M103.118 20.355V18.2441C101.934 18.3419 100.773 18.8423 99.8621 19.7625C98.957 20.677 98.4561 21.8504 98.3594 23.0525H100.448C100.636 21.6491 101.729 20.5448 103.118 20.355Z" fill="#1DABDD"/>
<path fill-rule="evenodd" clip-rule="evenodd" d="M100.454 23.8865H98.3652C98.462 25.0886 98.9572 26.2562 99.868 27.1765C100.773 28.0967 101.94 28.5971 103.124 28.6949V26.5898C101.735 26.4 100.642 25.2957 100.454 23.8923V23.8865Z" fill="#ABC82B"/>
<path fill-rule="evenodd" clip-rule="evenodd" d="M116.996 22.627H121.777C121.356 13.1023 113.791 5.45833 104.365 5.03271V9.86409C111.15 10.284 116.581 15.7711 116.996 22.627Z" fill="#1DABDD"/>
<path fill-rule="evenodd" clip-rule="evenodd" d="M109.237 28.3383L110.996 30.1156C114.315 26.3195 114.315 20.6139 110.996 16.8235L109.237 18.6008C111.588 21.4076 111.588 25.5315 109.237 28.3383Z" fill="#EC69A2"/>
<path fill-rule="evenodd" clip-rule="evenodd" d="M106.619 23.0467H108.708C108.611 21.8446 108.116 20.677 107.205 19.7567C106.3 18.8422 105.133 18.3361 103.949 18.2383V20.3492C105.338 20.5332 106.431 21.6433 106.619 23.0467Z" fill="#EC69A2"/>
<path fill-rule="evenodd" clip-rule="evenodd" d="M104.365 37.0693V41.9006C113.791 41.475 121.356 33.8311 121.777 24.3064H116.996C116.581 31.1623 111.15 36.6552 104.365 37.0693Z" fill="#EC69A2"/>
<path fill-rule="evenodd" clip-rule="evenodd" d="M80.3105 22.6269H90.0782C90.4881 15.771 95.9183 10.2839 102.709 9.86405V0C90.5279 0.431373 80.7432 10.3242 80.3162 22.6269H80.3105Z" fill="#ABC82B"/>
<path fill-rule="evenodd" clip-rule="evenodd" d="M98.7187 29.2241L96.9541 31.0013C100.711 34.3545 106.357 34.3545 110.114 31.0013L108.35 29.2241C105.572 31.5995 101.491 31.5995 98.7187 29.2241Z" fill="#FFDB00"/>
<path fill-rule="evenodd" clip-rule="evenodd" d="M103.949 26.5841V28.6949C105.133 28.6029 106.294 28.0967 107.205 27.1765C108.11 26.262 108.611 25.0886 108.708 23.8865H106.619C106.431 25.2899 105.338 26.3942 103.949 26.5841Z" fill="#FFDB00"/>
<path fill-rule="evenodd" clip-rule="evenodd" d="M90.0778 24.3064H83.2188C83.6457 34.9872 92.1326 43.5686 102.709 44V37.0693C95.9179 36.6494 90.4933 31.1681 90.0778 24.3064Z" fill="#FFDB00"/>
<path fill-rule="evenodd" clip-rule="evenodd" d="M104.78 23.4725C104.78 24.1685 104.222 24.7321 103.534 24.7321C102.845 24.7321 102.287 24.1685 102.287 23.4725C102.287 22.7766 102.845 22.2129 103.534 22.2129C104.222 22.2129 104.78 22.7766 104.78 23.4725Z" fill="#EC69A2"/>
</g>
</g>
<defs>
<clipPath id="clip0_67_26790">
<rect width="201" height="44" fill="white"/>
</clipPath>
</defs>
</svg>
